# xmcd CD database file
#
# Track frame offsets:
#	150
#	14665
#	43040
#	84675
#	97220
#	109732
#	129782
#	145370
#	160672
#
# Disc length: 2333 seconds
#
# Revision: 0
# Processed by: cddbd v1.5.2PL0 Copyright (c) Steve Scherf et al.
# Submitted via: CDex 1.51
#
DISCID=76091b09
DTITLE=Gene Harris - Elegant Soul
DYEAR=1900
DGENRE=Jazz
TTITLE0=Elegant Soul
TTITLE1=Do It Right Now
TTITLE2=Sittin' Duck
TTITLE3=(Sock It To Me) Harper Valley. PTa-The Three Sounds
TTITLE4=Sugar Hill
TTITLE5=African Sweets
TTITLE6=Black Gold
TTITLE7=Book of Slim
TTITLE8=Walls of Respect
EXTD=
EXTT0=
EXTT1=
EXTT2=
EXTT3=
EXTT4=
EXTT5=
EXTT6=
EXTT7=
EXTT8=
PLAYORDER=
